<?xml version="1.0" encoding="UTF-8"?>
<svg id="a" xmlns="http://www.w3.org/2000/svg" version="1.1" viewBox="0 0 250 250">
  <!-- Generator: Adobe Illustrator 30.3.0, SVG Export Plug-In . SVG Version: 2.1.3 Build 182)  -->
  <polygon points="90.1 135.65 102.27 135.65 114.44 135.65 102.27 97.96 90.1 135.65"/>
  <path d="M207.26,0H42.74C19.14,0,0,19.14,0,42.74v164.52c0,23.6,19.14,42.74,42.74,42.74h164.52c23.6,0,42.74-19.14,42.74-42.74V42.74C250,19.14,230.86,0,207.26,0ZM129.35,181.77l-5.58-17.27h-42.98l-5.58,17.27h-33.48l42.97-115.62h37.42l41.73,115.62h-34.5ZM199.1,181.77h-30.98v-91.03h30.98v91.03ZM183.62,88.69c-9.73.08-16.59-5.92-16.5-14.41-.09-8.49,6.78-14.49,16.5-14.41,9.73-.08,16.59,5.92,16.5,14.41.09,8.49-6.78,14.49-16.5,14.41Z"/>
</svg>