<?xml version="1.0" encoding="UTF-8"?>
<svg id="Layer_1" xmlns="http://www.w3.org/2000/svg" version="1.1" viewBox="0 0 508 508">
  <!-- Generator: Adobe Illustrator 30.3.0, SVG Export Plug-In . SVG Version: 2.1.3 Build 182)  -->
  <defs>
    <style>
      .st0 {
        fill-rule: evenodd;
      }
    </style>
  </defs>
  <path class="st0" d="M408.85,244.8c-10.15,0-19.68,23.75-19.68,37.19,0,7.22,2.09,13.4,7.43,13.4h0c9.31,0,18.21-24.93,18.21-39.07,0-6.38-1.57-11.52-5.97-11.52Z"/>
  <path class="st0" d="M355.4,229.79c-2.48,0-4.56,4.79-4.56,10.47,0,4.6,1.15,9.76,4.34,13.56,1.43-4.17,3.46-12.48,3.46-18.18,0-3.4-.76-5.85-3.25-5.85Z"/>
  <path class="st0" d="M184.4,244.8c-10.08,0-19.6,23.26-19.6,37.19,0,8.02,2.09,13.4,7.43,13.4,9.18,0,18.23-24.93,18.23-39.07,0-6.34-1.66-11.52-6.07-11.52Z"/>
  <path class="st0" d="M253.82,0C113.64,0,0,113.64,0,253.82s113.64,253.82,253.82,253.82,253.82-113.64,253.82-253.82S394,0,253.82,0ZM424.75,306.17c-8.45,0-13.05-6.03-14.85-14.34-5.46,9.22-12.58,14.46-21.36,14.46-8.08,0-17.47-5.52-17.47-25.18,0-6.83,1.45-13.66,3.91-19.9-5.79,4.09-11.82,4.23-15.83,3.72-10.23,21.19-27.12,41.2-36.62,41.2-7.75,0-12.7-14.57-14.99-32.63-7.32,19.33-18.29,32.56-29.09,32.56-9.74,0-14.46-7.34-14.46-18.43,0-10.27,5.54-26.35,5.54-34.2,0-1.78-.43-3.29-1.99-3.29-5.28,0-22.54,23.58-29.52,52.45-.67,2.74-4.4,3.46-7.53,3.46-6.63,0-8.37-7.2-8.28-14.85-6.59,9.74-13.52,14.99-21.79,14.99-7.22,0-12.78-4.72-14.87-14.36-5.44,9.21-12.56,14.46-21.36,14.46-9.9,0-16.4-7.47-17.41-21.78-8.96,17.26-25.57,32.05-44.59,32.05-27.88,0-44-19.7-44-52.37,0-41.07,32.05-73.11,63.9-73.11,19.27,0,30.17,9.82,30.17,23.24s-9.86,23.26-18.23,23.26c-2.09,0-3.15-1.25-3.15-2.52,0-4.15,6.09-9.21,6.09-20.11,0-9-4.4-14.87-13.62-14.87-19.27,0-45.25,28.92-45.25,64.31,0,24.51,9.84,40.03,28.49,40.03,20.54,0,35.8-20.48,43.38-41.69,5.65-15.89,18.53-28.08,30.05-28.08,7.02,0,12.05,3.25,13.73,10.68,4.79-8.43,9.76-10.17,14.34-10.17,4.17,0,6.01,1.53,6.01,4.5,0,1.06-.24,2.27-.67,3.68-3.36,10.86-10.06,34.57-10.06,45.8,0,4.07,1.14,6.59,3.46,6.59,12.82,0,26.33-39.79,25.34-55.33-.09-1.51.75-2.92,2.11-3.56,1.99-1.07,4.21-1.65,6.48-1.68,10.43,0,8.98,14.13,5.46,28.72,10.7-19.06,22.01-29.23,30.56-29.23,7.26,0,11.11,5.56,11.11,14.34,0,11.95-6.28,25.96-6.28,37.17,0,3.56.74,6.28,3.46,6.28,5.87,0,14.87-11.82,19.23-27.39,1.04-3.72,1.64-7.55,1.8-11.41.49-10.15,3.72-19,14.17-19,4.48,0,5.59,1.17,5.59,2.9,0,2.99-.82,3.5-1,13.4-.27,17.26,1.18,41.38,6.11,41.38,3.82,0,13.87-14.09,20.76-29.66-8.22-4.11-11.95-12.58-11.95-20.82,0-10.66,6.12-20.8,16.75-20.8,6.98,0,11.31,5.28,11.31,14.03,0,5.57-1.53,13.09-5.63,23.14,5.71,1.37,13.3-1.41,19.76-9.88,6.46-8.47,14.3-13.7,22.42-13.7,7.02,0,12.05,3.25,13.71,10.68,4.81-8.43,9.76-10.23,14.36-10.23,4.27,0,5.99,1.55,5.99,4.7,0,1-.25,2.17-.65,3.48-3.39,10.84-10.09,34.61-10.09,45.82,0,4.48,1.04,7.34,3.6,7.34,4.46,0,9.88-6.81,13.89-18.25.31-.9.92-1.33,1.58-1.33h0c1.47,0,2.72,1.78,2.72,4.71,0,11.09-11.48,24.61-24.71,24.61Z"/>
</svg>