<?xml version="1.0" encoding="UTF-8"?>
<svg id="Layer_1" xmlns="http://www.w3.org/2000/svg" version="1.1" viewBox="0 0 1667 2500">
  <!-- Generator: Adobe Illustrator 30.3.0, SVG Export Plug-In . SVG Version: 2.1.3 Build 182)  -->
  <path d="M1251.08,833.42c229.66-.43,415.92-186.95,415.92-416.71S1480.32,0,1250.3,0H416.87C186.85,0,.17,186.69.17,416.71s186.68,416.7,416.7,416.7h0C186.85,833.42.17,1020.11.17,1250.13s182.21,412.2,408.43,416.61C182.39,1671.16.17,1856.11.17,2083.36s186.69,416.71,416.71,416.71c230.02,0,416.71-186.69,416.71-416.71v-416.53h.01v-413.52c1.71,228.56,187.73,413.53,416.69,413.53s416.71-186.69,416.71-416.71-186.26-416.28-415.92-416.71ZM833.6,1246.95v-413.52h415.1c-228.23.85-413.4,185.49-415.1,413.52Z"/>
</svg>