<?xml version="1.0" encoding="UTF-8"?>
<svg id="Layer_4" xmlns="http://www.w3.org/2000/svg" version="1.1" viewBox="0 0 384 383.12">
  <!-- Generator: Adobe Illustrator 30.3.0, SVG Export Plug-In . SVG Version: 2.1.3 Build 182)  -->
  <path d="M384,106.91v166.17c-.6.15-1.02,1.28-.86,2.15.64,3.57-.23,6.54-.7,9.85-1.36,9.57-3.14,18.36-6.22,27.48-10.55,31.23-35.42,54.64-67.14,63.76-10.87,3.13-21.39,4.49-32.64,5.74l-13.89.31c-.52.01-.83.45-.79.75H123.75c.04-.3-.26-.73-.79-.74l-14.63-.32c-10-1.19-19.29-2.46-29-4.89-36.09-9.03-63.5-36.49-72.71-72.49-3.65-14.29-5.43-28.31-5.55-43.19l-.4-49.72c0-.57-.34-.83-.68-.82l.36-38.89.71-49.83c.21-14.91,1.87-28.97,5.46-43.3C15.69,42.41,43.25,14.64,80.01,5.69,94.5,2.16,108.92.26,124.23.23l136.27-.23,12.5,1.06c12.64,1.07,24.45,2.29,36.61,5.81,26.98,7.8,49.29,26.05,61.68,51.27,6.1,12.42,9.2,25.3,11.17,38.92.34,2.38,1.31,4.34.72,6.99-.24,1.08.25,2.3.82,2.86ZM229.51,348.54c15.7-.03,30.79-.37,46.37-1.4,9.25-.61,17.82-2.05,26.56-4.93,19.82-6.52,34.83-21.57,41.31-41.36,2.92-8.93,4.68-17.71,4.96-27.15l1.34-45.57v-72.55c0-15.51-.38-30.23-1.3-45.58-.54-9.09-1.94-17.5-4.51-26.16-6.38-21.44-22.83-37.47-44.37-43.59-10.18-2.89-19.97-4.36-30.68-4.51l-76.43-1.04-76.43,1.06c-10.69.15-20.45,1.56-30.67,4.56-17.57,5.15-32.29,16.81-40.24,33.39-4.71,9.81-7.06,20.03-8.03,30.94-1.45,16.41-1.75,32.12-1.76,48.68l-.02,75.54c0,16.53.38,32.26,1.63,48.66.63,8.17,2.18,15.59,4.61,23.28,6.47,20.45,22.41,35.88,42.99,41.95,9.2,2.71,17.96,4.04,27.7,4.59,23.74,1.33,46.83,1.32,70.56,1.27l46.41-.09Z"/>
  <path d="M291.38,191.52c0,54.39-44.18,98.48-98.67,98.48s-98.67-44.09-98.67-98.48,44.18-98.48,98.67-98.48,98.67,44.09,98.67,98.48ZM256.65,191.53c0-35.25-28.63-63.82-63.94-63.82s-63.94,28.57-63.94,63.82,28.63,63.82,63.94,63.82,63.94-28.57,63.94-63.82Z"/>
  <ellipse cx="295.26" cy="89.18" rx="23.05" ry="23.01"/>
</svg>