<?xml version="1.0" encoding="UTF-8"?>
<svg id="Layer_6" xmlns="http://www.w3.org/2000/svg" version="1.1" viewBox="0 0 384 383.12">
  <!-- Generator: Adobe Illustrator 30.3.0, SVG Export Plug-In . SVG Version: 2.1.3 Build 182)  -->
  <path d="M383.55,332.82c-.9,27.46-23.25,49.53-50.55,50.26H50.64c-27.11-.91-49.14-22.78-50.19-49.9V49.94C1.49,22.93,23.33,1.06,50.34.04h283.24c27.24,1.01,49.19,23.18,49.96,50.39v282.38ZM332.23,353.58c11.81,0,21.81-9.8,21.81-21.54V51.1c0-12.6-10.69-21.63-22.79-21.63l-278.83.02c-12.28,0-22.5,9.43-22.5,21.95v280.26c0,12.01,9.89,21.9,21.9,21.9h280.4Z"/>
  <path d="M324.56,324.13l-58.93.02v-89.46c-.25-8.14-.72-16.84-4.37-24.02-2.76-5.43-7.48-9.26-13.5-10.75-7.08-1.75-14.5-1.5-21.51.5-6.73,1.92-11.91,6.43-14.87,12.68-4.22,8.92-4.49,19.61-4.68,29.54v81.52s-58.93,0-58.93,0v-176.77s58.93-.02,58.93-.02v25.35c0,.32.22.57.73.48,8.12-16.29,22.97-24.03,40.83-25.46,8.08-.65,15.98-.45,23.98.75,45.39,6.85,51.9,46.08,52.32,85.86v89.8Z"/>
  <polygon points="118.3 324.11 59.38 324.16 59.38 147.37 118.3 147.36 118.3 324.11"/>
  <path d="M84.75,59.25c16.36-2.28,31.07,9.17,33.29,25.12,2.24,16.11-9.04,31-25.14,33.26s-30.85-8.92-33.21-24.87,8.66-31.22,25.07-33.51Z"/>
</svg>